<?xml version="1.0" encoding="UTF-8" standalone="no"?>
<!-- Created with Inkscape (http://www.inkscape.org/) -->

<svg
   xmlns:dc="http://purl.org/dc/elements/1.1/"
   xmlns:cc="http://creativecommons.org/ns#"
   xmlns:rdf="http://www.w3.org/1999/02/22-rdf-syntax-ns#"
   xmlns:svg="http://www.w3.org/2000/svg"
   xmlns="http://www.w3.org/2000/svg"
   xmlns:sodipodi="http://sodipodi.sourceforge.net/DTD/sodipodi-0.dtd"
   xmlns:inkscape="http://www.inkscape.org/namespaces/inkscape"
   width="100"
   height="100"
   viewBox="0 0 26.458333 26.458334"
   version="1.1"
   id="svg8"
   inkscape:version="0.92.3 (2405546, 2018-03-11)"
   sodipodi:docname="logo.svg">
  <defs
     id="defs2" />
  <sodipodi:namedview
     id="base"
     pagecolor="#ffffff"
     bordercolor="#666666"
     borderopacity="1.0"
     inkscape:pageopacity="0.0"
     inkscape:pageshadow="2"
     inkscape:zoom="5.6"
     inkscape:cx="9.4693103"
     inkscape:cy="60.518514"
     inkscape:document-units="mm"
     inkscape:current-layer="layer1"
     showgrid="false"
     units="px"
     borderlayer="true"
     inkscape:showpageshadow="false"
     inkscape:window-width="1828"
     inkscape:window-height="1051"
     inkscape:window-x="83"
     inkscape:window-y="-9"
     inkscape:window-maximized="1" />
  <metadata
     id="metadata5">
    <rdf:RDF>
      <cc:Work
         rdf:about="">
        <dc:format>image/svg+xml</dc:format>
        <dc:type
           rdf:resource="http://purl.org/dc/dcmitype/StillImage" />
        <dc:title></dc:title>
      </cc:Work>
    </rdf:RDF>
  </metadata>
  <g
     inkscape:label="Layer 1"
     inkscape:groupmode="layer"
     id="layer1"
     transform="translate(0,-270.54165)">
    <path
       style="fill:#000000;fill-opacity:1;stroke:none;stroke-width:3.63030672;stroke-linecap:round;stroke-linejoin:round;stroke-miterlimit:4;stroke-dasharray:none;stroke-opacity:1"
       d="M 54.359375 10.285156 L 10.257812 54.386719 A 39.999999 39.999999 0 0 0 13.173828 65.611328 L 65.580078 13.205078 A 39.999999 39.999999 0 0 0 54.359375 10.285156 z M 74.513672 18.416016 L 18.435547 74.494141 A 39.999999 39.999999 0 0 0 25.486328 81.583984 L 81.564453 25.505859 A 39.999999 39.999999 0 0 0 74.513672 18.416016 z M 86.826172 34.388672 L 34.419922 86.794922 A 39.999999 39.999999 0 0 0 45.640625 89.714844 L 89.742188 45.613281 A 39.999999 39.999999 0 0 0 86.826172 34.388672 z "
       transform="matrix(0.26458333,0,0,0.26458333,0,270.54165)"
       id="rect818" />
  </g>
</svg>
